<svg id="MINI" xmlns="http://www.w3.org/2000/svg" width="101.688" height="44.845" viewBox="0 0 101.688 44.845">
    <path id="Pfad_13" data-name="Pfad 13" d="M54.62,35.889H52.7V25.766h2.947l2.563,8.073,2.563-8.072h2.947V35.889h-2.05V28.406L59.49,35.837H57.055l-2.435-7.56v7.56Zm13.326,0H65.9V25.766h2.05Zm4.357,0h-2.05V25.766h2.435l3.972,7.3v-7.3h2.05V35.889H76.275l-3.972-7.3Zm10.891,0h-2.05V25.766h2.05ZM98.058,39.6h-9.61A17.94,17.94,0,0,0,89.6,35.889h12.045l3.2-3.2H90.037c0-.641.128-1.281.128-1.922a9.7,9.7,0,0,0-.128-1.922h18.451l3.2-3.2H89.473a17.938,17.938,0,0,0-1.153-3.716h27.165l3.2-3.2H86.654a22.283,22.283,0,0,0-37.672,0H17l3.2,3.2H47.368a31.636,31.636,0,0,0-1.281,3.716H23.868l3.2,3.2H45.523c0,.641-.128,1.281-.128,1.922a9.7,9.7,0,0,0,.128,1.922H30.787l3.2,3.2H46.035A18.182,18.182,0,0,0,47.317,39.6H37.835l3.2,3.2h8.073a22.283,22.283,0,0,0,37.672,0h8.073ZM67.946,49.984A19.092,19.092,0,1,1,87.039,30.891,19.092,19.092,0,0,1,67.946,49.984" transform="translate(-17 -8.341)" fill="#6f6f6f"/>
  </svg>  