<svg id="BMW_Group_Next" xmlns="http://www.w3.org/2000/svg" width="116.778" height="60.932" viewBox="0 0 116.778 60.932">
	<g id="Gruppe_1" data-name="Gruppe 1">
	  <path id="Pfad_5" data-name="Pfad 5" d="M4.955,27.883H16.418c3.661,0,5.88-.628,7.507-2a7.516,7.516,0,0,0,2.515-6.139,7.475,7.475,0,0,0-1.146-4.179,9.775,9.775,0,0,0-2.182-2.108c.407-.666.961-1.553,1.479-2.441a8.353,8.353,0,0,0,1.257-4.363,6.389,6.389,0,0,0-2.663-5.362C21.707.3,19.858,0,17.01,0H4.955V27.883Zm4.474-4.215v-7.84h7.322a6.654,6.654,0,0,1,3.587.666,3.6,3.6,0,0,1,1.553,3.254,3.5,3.5,0,0,1-1.146,2.921c-.814.7-2,1-4.253,1H9.429Zm0-12.055v-7.4H16.6a7.288,7.288,0,0,1,3.513.518A2.43,2.43,0,0,1,21.3,7.1a5.481,5.481,0,0,1-.887,2.81c-.333.555-.7,1.183-1.036,1.7H9.429Z" transform="translate(-4.067)" fill="#6f6f6f"/>
	  <path id="Pfad_6" data-name="Pfad 6" d="M147.051,27.883V6.693L153.6,22.336h4.1l6.545-15.642V27.883h4.4V0h-5.917L155.7,16.826,148.642,0h-5.991V27.883Z" transform="translate(-117.098)" fill="#6f6f6f"/>
	  <path id="Pfad_7" data-name="Pfad 7" d="M310.521,27.883l4.622-17.417,4.622,17.417h5.88L331.118,0h-4.512l-4.29,22.077-4.77-17.861h-4.77l-4.77,17.861L303.717,0h-4.586L304.6,27.883Z" transform="translate(-245.548)" fill="#6f6f6f"/>
	  <path id="Pfad_8" data-name="Pfad 8" d="M20.746,205.7V191.055H16.308v10.983a44,44,0,0,1-4.733.333c-3.143,0-4.955-.776-5.954-2.773-.814-1.627-1.072-4.031-1.072-7.285s.3-5.769,1.109-7.433c1.035-2.182,2.625-3.032,5.843-3.032a17.566,17.566,0,0,1,3.254.37c1.738.333,3.55.74,5.066,1.109v-4.363c-1.146-.3-2.736-.666-4.437-1a23.841,23.841,0,0,0-4.327-.481c-5.14,0-7.507,1.923-9.06,4.548-1.479,2.478-2,5.806-2,10.354,0,4.363.555,7.544,1.812,9.725,1.516,2.626,3.735,4.511,9.1,4.511a65.922,65.922,0,0,0,9.837-.924Z" transform="translate(0 -145.691)" fill="#6f6f6f"/>
	  <path id="Pfad_9" data-name="Pfad 9" d="M138.565,208.875V198.706h6.545l5.991,10.169h5.214l-6.4-10.835c.7-.74,1.849-2.034,2.736-3.106a8.935,8.935,0,0,0,2.33-6.028,7.82,7.82,0,0,0-2.478-6.028c-1.775-1.516-3.846-1.886-7.248-1.886H134.09v27.882h4.474Zm0-14.459v-9.134h6.213c2.367,0,3.55.185,4.363.74a3.209,3.209,0,0,1,1.294,2.921,5.584,5.584,0,0,1-1.442,3.587c-.481.592-1.109,1.331-1.627,1.886Z" transform="translate(-110.071 -148.572)" fill="#6f6f6f"/>
	  <path id="Pfad_10" data-name="Pfad 10" d="M272.493,177.483c-5.473,0-8.025,1.775-9.763,4.733-1.442,2.441-1.886,6.176-1.886,9.911,0,4.327.666,7.951,2.108,10.28,1.7,2.736,4.1,4.215,9.541,4.215,4.733,0,7.248-1.294,9.208-4.142,1.664-2.367,2.4-6.138,2.4-10.354,0-3.994-.592-7.951-2.4-10.539-1.923-2.773-4.438-4.1-9.208-4.1Zm0,4.29c2.515,0,4.474.629,5.658,2.7,1.072,1.812,1.405,4.659,1.405,7.655,0,3.106-.333,6.25-1.775,8.1-1.294,1.664-3.069,2.108-5.288,2.108-2.515,0-4.623-.407-5.843-2.515-.961-1.738-1.257-4.733-1.257-7.692,0-3,.259-5.917,1.22-7.655,1.22-2.219,3.365-2.7,5.88-2.7Z" transform="translate(-214.12 -145.691)" fill="#6f6f6f"/>
	  <path id="Pfad_11" data-name="Pfad 11" d="M406.647,180.993v17.158c0,3.957.444,6.8,2.33,8.8,1.849,2.034,4.29,2.551,8.062,2.551,3.55,0,6.028-.592,7.914-2.478,2-2,2.44-4.7,2.44-8.875V180.993h-4.474v17.269c0,2.921-.185,4.659-1.405,5.806-1.035.924-2.625,1.146-4.474,1.146-1.886,0-3.513-.222-4.511-1.183-1.22-1.183-1.405-2.921-1.405-5.769V180.993Z" transform="translate(-333.805 -148.572)" fill="#6f6f6f"/>
	  <path id="Pfad_12" data-name="Pfad 12" d="M545.127,208.876v-9.984c2.921,0,5.4,0,6.952-.111,2.589-.148,4.7-.7,6.25-2.293a9.513,9.513,0,0,0,2.256-6.767,9.335,9.335,0,0,0-2.182-6.471c-1.553-1.59-3.55-2.256-6.619-2.256H540.652v27.882h4.474Zm0-14.274v-9.319H551.3c1.775,0,2.847.185,3.624.962a4.742,4.742,0,0,1,1.109,3.476,4.994,4.994,0,0,1-.924,3.476c-.74.888-1.812,1.183-3.476,1.294-1.7.111-4.031.111-6.508.111Z" transform="translate(-443.806 -148.572)" fill="#6f6f6f"/>
	</g>
  </svg>
  