<svg id="Rolls-Royce" xmlns="http://www.w3.org/2000/svg" width="105.076" height="26.058" viewBox="0 0 105.076 26.058">
    <path id="Pfad_14" data-name="Pfad 14" d="M59.224,24.755a2.7,2.7,0,0,0,2.313,1.609,2.152,2.152,0,0,0,2.112-2.192h0c0-1.106-.5-1.709-2.514-3.117-1.81-1.307-2.514-2.212-2.514-3.62a2.946,2.946,0,0,1,5.731-.9l-1.006.5a2.011,2.011,0,0,0-1.91-1.408,1.639,1.639,0,0,0-1.709,1.569v.141c0,.8.4,1.709,2.011,2.815,2.212,1.508,3.017,2.413,3.017,4.022a3.228,3.228,0,0,1-3.137,3.318h-.181a3.529,3.529,0,0,1-3.318-2.212ZM44.031,26.072V14.8H42.824V27.168h6.134l.3-1.106Zm7.944,0V14.8H50.667V27.168H56.8l.3-1.106Zm70.888-4.625V20.341h-4.927V16.017h5.229V14.911h-6.435V27.279h6.435l.3-1.106h-5.43V21.447ZM99.937,27.178v-5.53l4.324-6.737h-1.408l-3.519,5.631-3.519-5.631h-1.4l4.324,6.737v5.53ZM70.174,21.547V20.441H66.152v1.106Zm44.846,3.921.1-.1-.8-.7-.1.1a5.148,5.148,0,0,1-3.921,1.609,5.209,5.209,0,0,1-5.229-5.209v-.121a5.369,5.369,0,0,1,5.329-5.329,5.028,5.028,0,0,1,3.821,1.508l.1.1.7-.9-.1-.1a6.194,6.194,0,0,0-4.525-1.81,6.516,6.516,0,0,0-6.536,6.516h0a6.274,6.274,0,0,0,6.1,6.435h.231a6.667,6.667,0,0,0,4.776-2.011ZM26.434,27.178l-3.821-6.234H19.6v6.234H18.39V12.89h4.223a4.022,4.022,0,0,1,4.213,3.821,1.277,1.277,0,0,1,0,.2,3.791,3.791,0,0,1-3.017,3.821l4.022,6.435Zm-3.62-7.34a2.745,2.745,0,0,0,2.815-2.675v-.141a2.866,2.866,0,0,0-2.916-2.815H19.6v5.731ZM34.528,27.48a6.294,6.294,0,0,1-6.475-6.164v-.271a6.435,6.435,0,1,1,6.435,6.435Zm0-11.764a5.138,5.138,0,0,0-5.138,5.148q0,.09,0,.181A5.259,5.259,0,0,0,34.6,26.374h0a5.138,5.138,0,0,0,5.128-5.148v-.181a5.148,5.148,0,0,0-4.967-5.329Zm45.55,11.463-3.761-6.244H73.3v6.234H72.094V12.89h4.223a4.022,4.022,0,0,1,4.213,3.821,1.277,1.277,0,0,1,0,.2,3.791,3.791,0,0,1-3.017,3.821l4.022,6.435Zm-3.761-7.35a2.745,2.745,0,0,0,2.815-2.675v-.131a2.866,2.866,0,0,0-2.916-2.815H73.1v5.731ZM88.082,27.47a6.294,6.294,0,0,1-6.435-6.154v-.271a6.435,6.435,0,1,1,6.435,6.435Zm0-11.764a5.138,5.138,0,0,0-5.138,5.148v.181a5.259,5.259,0,0,0,5.209,5.329h0a5.138,5.138,0,0,0,5.259-5.1v-.221a5.148,5.148,0,0,0-4.967-5.329Zm-39.114,18.2a2.494,2.494,0,0,0-2.514,2.474h0a2.373,2.373,0,0,0,2.222,2.514h.292a2.514,2.514,0,0,0,0-5.028Zm0,4.324a1.669,1.669,0,0,1-1.719-1.619,1.156,1.156,0,0,1,0-.191,1.78,1.78,0,0,1,1.709-1.81,1.659,1.659,0,0,1,1.709,1.619v.191a1.79,1.79,0,0,1-1.659,1.81Zm3.218-3.519h1.408v4.123h.8V34.71H55.7v-.7H52.185Zm6.636-.8a2.494,2.494,0,0,0-2.514,2.474h0a2.373,2.373,0,0,0,2.222,2.514h.292a2.494,2.494,0,0,0,2.514-2.474h0a2.554,2.554,0,0,0-2.564-2.514Zm0,4.324A1.669,1.669,0,0,1,57.1,36.61a1.157,1.157,0,0,1,0-.191,1.78,1.78,0,0,1,1.709-1.81,1.659,1.659,0,0,1,1.709,1.619v.191a1.78,1.78,0,0,1-1.75,1.81h0ZM43.136,36.62l-1.508-2.614h-.7v4.826h.7V35.413l1.207,2.112h.4l1.207-2.112v3.419h.7V34.006h-.5Zm42.03-.6c-.6-.4-.7-.6-.7-.9a.543.543,0,0,1,.5-.5.633.633,0,0,1,.6.5l.7-.2A1.227,1.227,0,0,0,84.965,33.8a1.146,1.146,0,0,0-1.207,1.106v.1c0,.6.4,1.006,1.006,1.408s.8.6.8,1.006a.533.533,0,0,1-.452.6h-.151c-.5,0-.7-.4-.8-.8l-.7.2a1.438,1.438,0,0,0,1.508,1.307,1.357,1.357,0,0,0,1.408-1.287h0c0-.5-.452-.8-1.257-1.408Zm-2.916-.5c0-.9-.6-1.408-1.609-1.408H79.233v4.826h.8V36.922h.6l1.207,2.011h.9l-1.307-2.112a1.468,1.468,0,0,0,.754-1.307Zm-1.609.7h-.7V34.81h.6a.714.714,0,0,1,.794.613.281.281,0,0,1,0,.09c.05.1.05.7-.754.7Zm-5.128-2.212L73.6,38.832h.8l.5-1.307h1.709l.5,1.307h.8l-1.81-4.826Zm-.3,2.815.6-1.91.6,1.91Zm-9.7-1.307c0-.9-.6-1.408-1.609-1.408H62.492v4.826h.754V36.922h.6l1.207,2.011h.9l-1.307-2.112a1.458,1.458,0,0,0,.845-1.307Zm-1.609.7h-.654V34.81h.7a.714.714,0,0,1,.794.613.282.282,0,0,1,0,.09.774.774,0,0,1-.855.7Zm7.139-1.508a2.182,2.182,0,0,1,1.307.5l.5-.5a2.363,2.363,0,0,0-1.81-.8,2.494,2.494,0,0,0-2.514,2.474h0a2.4,2.4,0,0,0,2.283,2.514h.131a2.745,2.745,0,0,0,1.91-.8l-.5-.5a1.559,1.559,0,0,1-1.307.5,1.659,1.659,0,0,1-1.76-1.559,1.49,1.49,0,0,1,0-.211,1.729,1.729,0,0,1,1.75-1.609Zm27.4-.593H96.729v4.826h1.81a2.3,2.3,0,0,0,2.313-2.293V36.53a2.443,2.443,0,0,0-2.413-2.413Zm.1,4.123H97.534V34.82h1.006a1.518,1.518,0,0,1,1.619,1.388,1.72,1.72,0,0,1,0,.322,1.559,1.559,0,0,1-1.4,1.7Zm-8.547-.1V34.016h-.8v4.826H92v-.7ZM92.2,34.72h1.408v4.123h.8V34.72h1.307v-.7H92.2Z" transform="translate(-18.39 -12.885)" fill="#6f6f6f"/>
  </svg>  